<svg id="svg" xmlns="http://www.w3.org/2000/svg" viewBox="152 73.33000183105469 380 230.00001525878906" height="230.00001525878906"><path d="M 191,157.33" fill="none" stroke="#3794ff" stroke-width="2"></path><rect x="162" y="85.33" fill="none" stroke="#3794ff" stroke-width="2" width="360" height="208" rx="10" ry="10" d="M 162 95.33 a 10 10 0 0 1 10 -10 h 340 a 10 10 0 0 1 10 10 v 188 a 10 10 0 0 1 -10 10 h -340 a 10 10 0 0 1 -10 -10 Z"></rect><line x1="162" y1="103.33" x2="522" y2="102.33" fill="none" stroke="#3794ff" stroke-width="2" d="M 162 103.33 L 522 102.33"></line><line x1="162" y1="152.33" x2="521" y2="151.33" fill="none" stroke="#3794ff" stroke-width="2" d="M 162 152.33 L 521 151.33"></line><line x1="168" y1="101.33" x2="180" y2="87.33" fill="none" stroke="#3794ff" stroke-width="2" d="M 168 101.33 L 180 87.33"></line><line x1="187" y1="101.33" x2="197" y2="89.33" fill="none" stroke="#3794ff" stroke-width="2" d="M 187 101.33 L 197 89.33"></line><line x1="206" y1="99.33" x2="218" y2="87.33" fill="none" stroke="#3794ff" stroke-width="2" d="M 206 99.33 L 218 87.33"></line><line x1="228" y1="100.33" x2="239" y2="86.33" fill="none" stroke="#3794ff" stroke-width="2" d="M 228 100.33 L 239 86.33"></line><line x1="249" y1="102.33" x2="263" y2="85.33" fill="none" stroke="#3794ff" stroke-width="2" d="M 249 102.33 L 263 85.33"></line><line x1="277" y1="101.33" x2="288" y2="90.33" fill="none" stroke="#3794ff" stroke-width="2" d="M 277 101.33 L 288 90.33"></line><line x1="288" y1="90.33" x2="293" y2="86.33" fill="none" stroke="#3794ff" stroke-width="2" d="M 288 90.33 L 293 86.33"></line><line x1="301" y1="100.33" x2="316" y2="86.33" fill="none" stroke="#3794ff" stroke-width="2" d="M 301 100.33 L 316 86.33"></line><line x1="325" y1="99.33" x2="337" y2="83.33" fill="none" stroke="#3794ff" stroke-width="2" d="M 325 99.33 L 337 83.33"></line><line x1="346" y1="102.33" x2="363" y2="85.33" fill="none" stroke="#3794ff" stroke-width="2" d="M 346 102.33 L 363 85.33"></line><line x1="374" y1="100.33" x2="386" y2="87.33" fill="none" stroke="#3794ff" stroke-width="2" d="M 374 100.33 L 386 87.33"></line><line x1="400" y1="98.33" x2="413" y2="87.33" fill="none" stroke="#3794ff" stroke-width="2" d="M 400 98.33 L 413 87.33"></line><line x1="426" y1="101.33" x2="444" y2="85.33" fill="none" stroke="#3794ff" stroke-width="2" d="M 426 101.33 L 444 85.33"></line><text font-family="inherit" font-size="14" fill="#000000" x="244" y="124.33">Cuivre</text><line x1="455" y1="100.33" x2="465" y2="89.33" fill="none" stroke="#3794ff" stroke-width="2" d="M 455 100.33 L 465 89.33"></line><line x1="484" y1="104.33" x2="498" y2="88.33" fill="none" stroke="#3794ff" stroke-width="2" d="M 484 104.33 L 498 88.33"></line><line x1="505" y1="98.33" x2="507" y2="98.33" fill="none" stroke="#3794ff" stroke-width="2" d="M 505 98.33 L 507 98.33"></line><line x1="344" y1="134.33" x2="344" y2="134.33" fill="none" stroke="#000000" stroke-width="2" d="M 344 134.33 L 344 134.33"></line><text font-family="inherit" font-size="14" fill="#cccccc" x="261" y="213.33">Isolant</text><text font-family="inherit" font-size="14" fill="#cccccc" x="261" y="131.33">Cuivre</text></svg>