<svg xmlns="http://www.w3.org/2000/svg" width="81.295" height="81.295" viewBox="0 0 81.295 81.295">
  <path id="Icon_awesome-check-circle" data-name="Icon awesome-check-circle" d="M81.857,41.21A40.647,40.647,0,1,1,41.21.563,40.647,40.647,0,0,1,81.857,41.21ZM36.508,62.732,66.666,32.575a2.622,2.622,0,0,0,0-3.709l-3.709-3.709a2.622,2.622,0,0,0-3.709,0L34.654,49.752,23.171,38.269a2.623,2.623,0,0,0-3.709,0l-3.709,3.709a2.622,2.622,0,0,0,0,3.709L32.8,62.732A2.622,2.622,0,0,0,36.508,62.732Z" transform="translate(-0.563 -0.563)" fill="#049212"/>
</svg>
